<?xml version="1.0" encoding="utf-8"?>
<!-- Generator: Adobe Illustrator 23.0.6, SVG Export Plug-In . SVG Version: 6.00 Build 0)  -->
<svg version="1.1" id="Capa_1" xmlns="http://www.w3.org/2000/svg" xmlns:xlink="http://www.w3.org/1999/xlink" x="0px" y="0px"
	 viewBox="0 0 415.2 415.2" style="enable-background:new 0 0 415.2 415.2;" xml:space="preserve">
<style type="text/css">
	.st0{fill:#E9190F;}
</style>
<path class="st0" d="M412.9,79c3.4-6.6,2.8-14.2-0.1-20.4c0.8-7.1-1-14.3-7.7-19.9c-6.3-5.2-12.5-10.3-18.8-15.5
	c-11-9.1-28.2-11.9-38.9,0C298.6,77.4,247.8,129.1,195.1,179c-39.2-36.6-78.8-72.7-118.2-108.9C63,57.4,43,61.4,34.3,76.5
	C21.7,82.8,11.4,91,2.9,105c-4,6.7-3.7,15.1,0,21.8c25.4,45.6,74.6,85.7,115,122.5c-5.4,4.8-10.8,9.7-16.3,14.5
	c-54.4,46.7-91.1,76.4-23,124.3c0.9,0.6,1.9,0.5,2.8,0.9c1.3,0.6,2.6,1,4,1.3c0.4,0,0.9,0.1,1.3,0.1c1.4,0.1,2.8,0.5,4.2,0.2
	c36.6-7.2,70.7-35.9,101.6-67.5c30.1,29.7,62.2,58,97.4,74.8c8.4,4,18.4,1.7,24.9-3.9c10.8,0.8,20.7-5.9,25.7-15.6
	c0.7-0.5,1.2-0.7,2-1.2c15.7-9.8,17.2-29.4,5.5-42.9c-26.3-30.5-54.3-59.5-82.8-87.9C316.4,196,380.5,141.9,412.9,79z"/>
</svg>
